<svg width="107" height="57" viewBox="0 0 107 57" fill="none" xmlns="http://www.w3.org/2000/svg">
<g clip-path="url(#clip0_1_278)">
<path d="M88.6515 48.6949H8.2658C7.34096 48.6949 6.59119 47.9414 6.59119 47.0121V41.9635H88.6515V48.6949Z" fill="#C80D12"/>
<path d="M88.6514 55.4246C92.3507 55.4246 95.3492 52.4113 95.3492 48.6941C95.3492 44.9769 92.3507 41.9635 88.6514 41.9635C84.9522 41.9635 81.9536 44.9769 81.9536 48.6941C81.9536 52.4113 84.9522 55.4246 88.6514 55.4246Z" fill="white"/>
<path d="M33.3869 55.4246C37.0861 55.4246 40.0848 52.4113 40.0848 48.6941C40.0848 44.9769 37.0861 41.9635 33.3869 41.9635C29.6878 41.9635 26.6891 44.9769 26.6891 48.6941C26.6891 52.4113 29.6878 55.4246 33.3869 55.4246Z" fill="white"/>
<path d="M19.9891 55.4246C23.6882 55.4246 26.687 52.4113 26.687 48.6941C26.687 44.9769 23.6882 41.9635 19.9891 41.9635C16.29 41.9635 13.2913 44.9769 13.2913 48.6941C13.2913 52.4113 16.29 55.4246 19.9891 55.4246Z" fill="white"/>
<path d="M19.9887 45.9886H19.9613C18.5412 45.9886 17.4036 47.1487 17.4036 48.5796C17.4036 50.0105 18.5686 51.1705 19.9887 51.1705C21.4088 51.1705 22.5602 50.0105 22.5602 48.5796C22.5602 47.1487 21.4088 45.9886 19.9887 45.9886Z" fill="#111827"/>
<path d="M33.5248 45.9886H33.4974C32.0773 45.9886 30.9397 47.1487 30.9397 48.5796C30.9397 50.0105 32.1048 51.1705 33.5248 51.1705C34.945 51.1705 36.0963 50.0105 36.0963 48.5796C36.0963 47.1487 34.945 45.9886 33.5248 45.9886Z" fill="#111827"/>
<path d="M88.6353 46.6364H88.6115C87.3687 46.6364 86.3735 47.6514 86.3735 48.9034C86.3735 50.1554 87.3932 51.1704 88.6353 51.1704C89.878 51.1704 90.8855 50.1554 90.8855 48.9034C90.8855 47.6514 89.878 46.6364 88.6353 46.6364Z" fill="#111827"/>
<path d="M105.525 28.0837L103.419 25.9667L99.1742 13.1719C99.8078 12.9697 100.267 12.3745 100.267 11.6715C100.267 10.8019 99.5648 10.0969 98.6998 10.0969H83.5193V3.25738C83.5193 1.46116 82.0658 0 80.2777 0H3.24155C1.45406 0.000209937 0 1.46158 0 3.25738V40.2806C0 42.0768 1.45406 43.538 3.24155 43.538H5.02402V47.0112C5.02402 48.8074 6.47808 50.2686 8.26556 50.2686H11.8738C12.6083 54.0979 15.9667 57 19.9885 57C22.7424 57 25.1845 55.6383 26.6872 53.5512C28.1901 55.6383 30.6322 57 33.3861 57C37.4079 57 40.7665 54.0979 41.5009 50.2686H80.5362C81.271 54.0979 84.6293 57 88.6514 57C93.2086 57 96.9169 53.2738 96.9169 48.6941C96.9169 48.6579 96.9143 48.6225 96.9143 48.5865H103.724C105.511 48.5865 106.965 47.1254 106.965 45.3292V31.5766C106.965 30.2572 106.454 29.0166 105.525 28.0837ZM11.8738 47.1198H8.26556C8.206 47.1198 8.15778 47.0712 8.15778 47.0114V43.5382H13.5155C12.7048 44.564 12.1297 45.7849 11.8738 47.1198ZM19.9885 53.8516C17.1587 53.8516 14.8567 51.538 14.8567 48.6946C14.8567 45.862 17.1416 43.556 19.9565 43.5384H20.0209C22.8358 43.5558 25.1208 45.8618 25.1208 48.6946C25.1205 51.5378 22.8183 53.8516 19.9885 53.8516ZM33.3863 53.8516C30.5566 53.8516 28.2543 51.538 28.2543 48.6946C28.2543 45.862 30.5392 43.556 33.3542 43.5384H33.4185C36.2334 43.5558 38.5183 45.8618 38.5183 48.6946C38.5181 51.5378 36.2161 53.8516 33.3863 53.8516ZM80.5368 47.1198H41.501C41.2451 45.7849 40.6699 44.5638 39.8592 43.538H70.2294C71.0951 43.538 71.7964 42.833 71.7964 41.9635C71.7964 41.0939 71.0951 40.389 70.2294 40.389H3.24155C3.18201 40.389 3.13375 40.3405 3.13375 40.2806V3.25738C3.13375 3.19755 3.18201 3.14906 3.24155 3.14906H80.2777C80.337 3.14906 80.3854 3.19755 80.3854 3.25738V40.3892H76.9291C76.0635 40.3892 75.3622 41.0942 75.3622 41.9637C75.3622 42.8332 76.0635 43.5382 76.9291 43.5382H82.1786C81.3677 44.564 80.7927 45.7849 80.5368 47.1198ZM100.433 26.9254H90.3261C90.2668 26.9254 90.2184 26.877 90.2184 26.8171V19.9772H98.1287L100.433 26.9254ZM88.6514 53.8516C85.8217 53.8516 83.5193 51.538 83.5193 48.6946C83.5193 45.862 85.8043 43.556 88.6192 43.5384H88.6514C88.6553 43.5384 88.6585 43.538 88.6624 43.5378C91.4869 43.5437 93.7836 45.8546 93.7836 48.6945C93.7829 51.5378 91.4811 53.8516 88.6514 53.8516ZM103.831 35.3406H102.049C101.183 35.3406 100.482 36.0456 100.482 36.9151C100.482 37.7847 101.183 38.4896 102.049 38.4896H103.831V45.3296C103.831 45.3894 103.783 45.4379 103.724 45.4379H96.2542C94.9915 42.4721 92.0593 40.3885 88.6514 40.3885C88.6405 40.3885 88.6302 40.3894 88.6192 40.3894H83.5193V13.3547C83.5193 13.2949 83.5676 13.2456 83.6276 13.2456H95.8959L97.0838 16.8279H88.6514C87.7858 16.8279 87.0845 17.5329 87.0845 18.4025V26.8169C87.0845 28.6132 88.5386 30.0743 90.3261 30.0743H103.075L103.309 30.3103C103.646 30.6487 103.831 31.0984 103.831 31.5768V35.3406Z" fill="#111827"/>
<path d="M8.56684 38.2761H75.5552C76.4202 38.2761 77.1215 37.5711 77.1215 36.7016C77.1215 35.832 76.4202 35.1271 75.5552 35.1271H8.56684C7.70156 35.1271 7 35.832 7 36.7016C7 37.5711 7.70156 38.2761 8.56684 38.2761Z" fill="#111827"/>
</g>
<g clip-path="url(#clip1_1_278)">
<path d="M41.1814 7.06688C41.1029 7.10106 39.7549 7.87272 38.1912 8.77136C36.1814 9.92884 35.3137 10.4563 35.2255 10.5686L35.1029 10.7249L35.0784 14.1388L35.0539 17.5575L32.2108 19.1887C30.6471 20.0922 29.3088 20.8834 29.2304 20.9567C29.1569 21.0251 29.0735 21.1618 29.049 21.2546C29.0196 21.3523 29 22.1191 29 23.0079V24.5854L29.1225 24.7027C29.2745 24.8589 29.4608 24.8589 29.6127 24.7027L29.7353 24.5854V23.2375C29.7353 22.4951 29.7549 21.8944 29.7745 21.9042C29.799 21.9091 31 22.5977 32.4461 23.4328L35.0784 24.9468V28.0139C35.0784 30.9199 35.0735 31.0761 34.9951 31.0322C34.9461 31.0029 33.75 30.3143 32.3333 29.4986L29.7598 28.0188L29.7353 26.8565C29.7108 25.7087 29.7108 25.6941 29.5931 25.6013C29.4363 25.4743 29.2647 25.4841 29.1225 25.6306L29 25.7478V26.9248C29 28.2044 29.0196 28.307 29.2745 28.5414C29.3529 28.6147 30.7059 29.4107 32.2843 30.3191C34.4216 31.5499 35.201 31.9748 35.3529 31.9894C35.4902 32.009 35.6225 31.9846 35.7696 31.9162C35.8873 31.8673 37.2255 31.1055 38.7451 30.2312L41.5 28.6391L44.3088 30.2557C45.848 31.1445 47.1814 31.9015 47.2696 31.9357C47.5 32.0334 47.6961 32.0187 47.9608 31.8869C48.6127 31.5597 53.6029 28.6537 53.7451 28.5219C53.8333 28.4388 53.9265 28.2923 53.951 28.1946C54.0196 27.9505 54.0147 25.8357 53.9461 25.6843C53.8382 25.4548 53.4608 25.4108 53.3284 25.6159C53.3088 25.6501 53.2794 26.2069 53.2647 26.8516L53.2402 28.0188L52.8725 28.2288L52.5049 28.4388L52.4804 27.76C52.4608 27.1837 52.4412 27.0665 52.3627 26.9786C52.1814 26.7783 52.0539 26.832 50.3775 27.7942C49.5 28.2972 48.7304 28.7563 48.6716 28.8149C48.5637 28.9175 48.5588 28.9565 48.5588 29.8161V30.7147L48.402 30.8027C48.3137 30.8515 48.1667 30.9394 48.0833 30.9882L47.9216 31.0859V28.0139V24.9468L50.5833 23.4182L53.2402 21.8944L53.2549 23.2228C53.2647 24.5073 53.2696 24.5561 53.3725 24.6636C53.5147 24.815 53.7255 24.8101 53.8775 24.6538L54 24.5366V22.9835C54 22.1093 53.9804 21.3523 53.951 21.2546C53.8627 20.942 54.1176 21.1032 49.4314 18.4073L47.9216 17.538V14.1974C47.9216 10.9887 47.9167 10.847 47.8284 10.6663C47.7745 10.5686 47.6471 10.427 47.5441 10.3635C47.0294 10.0216 45.1765 9.0009 45.0833 9.0009C44.9412 9.0009 44.7353 9.21091 44.7353 9.35743C44.7353 9.4258 44.7745 9.52348 44.8235 9.58209C44.8676 9.63581 45.3284 9.92396 45.8382 10.217C46.3529 10.51 46.7647 10.7689 46.7598 10.7884C46.7549 10.8177 45.0441 11.8287 44.8088 11.941C44.7255 11.9752 44.3922 11.8043 42.8725 10.9252C41.8627 10.344 40.6667 9.66023 40.2157 9.40138L39.3971 8.93253L39.5441 8.84462C39.6275 8.79578 40.098 8.52228 40.598 8.23901L41.5 7.72132L42.5735 8.33669C43.7402 9.00579 43.8676 9.04974 44.0441 8.82508C44.1618 8.67857 44.1716 8.52716 44.0784 8.40507C44.0441 8.35623 43.5147 8.02901 42.8971 7.67736C41.6961 6.98385 41.5049 6.91548 41.1814 7.06688ZM41.3235 10.8812C42.7696 11.7115 43.951 12.405 43.951 12.4196C43.951 12.4343 43.3971 12.7615 42.7255 13.1425L41.5 13.8457L38.8873 12.3464C37.4559 11.521 36.2598 10.8324 36.2353 10.8079C36.2157 10.7884 36.3431 10.6859 36.5245 10.5784C36.7059 10.4758 37.2549 10.1584 37.7402 9.87512C38.2304 9.58697 38.6471 9.35743 38.6618 9.36231C38.6765 9.36231 39.8725 10.0461 41.3235 10.8812ZM38.4657 12.9471L41.0833 14.4562L41.098 17.5184L41.1078 20.5758L40.9265 20.483C40.8235 20.4292 39.6373 19.7504 38.2892 18.9738L35.8382 17.5624L35.8235 14.5002C35.8186 12.8201 35.8186 11.4429 35.8284 11.4429C35.8382 11.4429 37.0245 12.1217 38.4657 12.9471ZM47.1765 14.5051L47.1618 17.5673L46.7941 17.7773L46.4265 17.9873L46.4167 17.3621C46.3971 16.5807 46.3873 16.5319 46.1912 16.4489C46.0637 16.3951 46.0098 16.3951 45.8873 16.444C45.6716 16.5368 42.6667 18.2754 42.5784 18.3585C42.5196 18.4171 42.5 18.6124 42.4902 19.3499L42.4706 20.2681L42.201 20.4195C42.0539 20.5074 41.9118 20.5758 41.8873 20.5758C41.8627 20.5758 41.8431 19.3304 41.8431 17.5331V14.4953L42.4951 14.1192C42.848 13.9141 43.9363 13.2939 44.9069 12.7371C45.8775 12.1803 46.7696 11.6626 46.8922 11.5845C47.0147 11.5112 47.1275 11.4477 47.152 11.4477C47.1716 11.4429 47.1814 12.8201 47.1765 14.5051ZM45.6324 18.4317C45.5833 18.4806 43.3873 19.7406 43.2892 19.7748C43.2206 19.8041 43.2157 19.7406 43.2255 19.3011L43.2402 18.7931L44.4412 18.1045L45.6422 17.4159L45.6569 17.9043C45.6618 18.1729 45.652 18.4122 45.6324 18.4317ZM38.0686 19.6918C39.5098 20.522 40.6961 21.2204 40.701 21.2449C40.7108 21.2839 38.8137 22.3926 38.6863 22.4219C38.652 22.4268 38.2843 22.2412 37.8676 21.997C37.451 21.7577 36.2843 21.0886 35.2745 20.5025C34.2647 19.9213 33.4216 19.428 33.402 19.4085C33.3725 19.3841 35.3235 18.2022 35.4216 18.1875C35.4363 18.1875 36.6275 18.8615 38.0686 19.6918ZM50.2402 19.7211C51.6863 20.5513 52.8529 21.2449 52.8333 21.2644C52.7059 21.3914 50.799 22.4365 50.7402 22.417C50.6814 22.3926 49.1422 21.5086 46.1422 19.7797C45.5833 19.4573 45.4755 19.3792 45.549 19.3401C45.5931 19.3157 46.0637 19.0422 46.5931 18.7394C47.1225 18.4317 47.5686 18.1875 47.5833 18.1973C47.598 18.2022 48.7941 18.8859 50.2402 19.7211ZM35.2941 21.3621C36.7108 22.1777 37.8725 22.8614 37.8725 22.8761C37.8725 22.9444 35.4608 24.2924 35.3922 24.268C35.3529 24.2533 34.2451 23.6233 32.9314 22.8663C31.6176 22.1142 30.4461 21.4402 30.3284 21.3718L30.1176 21.2497L30.3284 21.1228C31.4314 20.4683 32.5686 19.8432 32.6324 19.8578C32.6765 19.8725 33.8775 20.5465 35.2941 21.3621ZM47.3431 21.3181C48.7549 22.124 49.9314 22.8126 49.9657 22.8419C50.0098 22.881 49.7304 23.0617 48.8578 23.5647C48.2157 23.9359 47.6569 24.2485 47.6176 24.2631C47.5686 24.2826 46.5392 23.721 44.8873 22.7686L42.2402 21.2449L43.451 20.5465C44.1176 20.1606 44.6863 19.8481 44.7206 19.8432C44.75 19.8432 45.9314 20.5074 47.3431 21.3181ZM41.1078 24.9566V28.0237L40.7451 28.2288C40.549 28.346 40.3725 28.4388 40.3578 28.4388C40.3382 28.4388 40.3235 28.1312 40.3235 27.7551C40.3235 27.1348 40.3137 27.0616 40.2255 26.9737C40.1716 26.9199 40.0637 26.876 39.9853 26.876C39.8922 26.876 39.3137 27.1788 38.2598 27.7893C37.3873 28.2874 36.6225 28.7416 36.5637 28.7954C36.4559 28.893 36.451 28.9223 36.451 29.8015L36.4461 30.7099L36.1324 30.8906L35.8137 31.0664V28.0042V24.942L38.0588 23.6526C39.2892 22.9444 40.4755 22.2607 40.6912 22.1288C40.9069 22.0019 41.0882 21.8993 41.098 21.8944C41.1029 21.8944 41.1078 23.2717 41.1078 24.9566ZM44.652 23.4817L47.1863 24.9371V28.0042V31.0664L45.5343 30.114C44.6226 29.5914 43.4314 28.9077 42.8873 28.5951L41.8922 28.0237V24.9517V21.8846L42.0049 21.953C42.0637 21.9921 43.2549 22.6807 44.652 23.4817ZM51.7108 28.8833C51.6471 28.9419 49.3725 30.2459 49.3284 30.2459C49.3088 30.2459 49.299 30.0212 49.3039 29.7477L49.3186 29.2496L50.5196 28.5561L51.7206 27.8674L51.7353 28.3558C51.7402 28.6244 51.7304 28.8637 51.7108 28.8833ZM39.5882 28.3998V28.9028L38.4363 29.5621C37.799 29.9235 37.2598 30.2263 37.2353 30.2361C37.2059 30.2459 37.1863 30.0554 37.1863 29.7477L37.1912 29.2447L38.3529 28.5756C38.9902 28.2093 39.5294 27.9065 39.5539 27.9016C39.5735 27.9016 39.5882 28.1263 39.5882 28.3998Z" fill="#111827"/>
<path d="M37.0393 16.7174C36.9167 16.8395 36.9118 17.0788 37.0295 17.1961C37.0736 17.24 37.5295 17.5184 38.0393 17.8114C39.0295 18.3828 39.1912 18.4317 39.353 18.2266C39.4559 18.1045 39.4657 17.8945 39.3824 17.7772C39.3481 17.7333 38.8971 17.4549 38.3775 17.157C37.3824 16.5905 37.2206 16.5367 37.0393 16.7174Z" fill="#111827"/>
<path d="M43.1176 27.169C42.9951 27.2911 42.9902 27.5646 43.1078 27.672C43.152 27.7111 43.598 27.9846 44.098 28.2728C45.0833 28.8442 45.2598 28.8979 45.4265 28.6879C45.549 28.5365 45.5441 28.3704 45.4118 28.2239C45.2451 28.0481 43.5049 27.0713 43.348 27.0713C43.2745 27.0713 43.1716 27.1153 43.1176 27.169Z" fill="#111827"/>
<path d="M30.9657 27.1984C30.7255 27.5012 30.8284 27.6086 31.9314 28.2435C32.4608 28.5512 32.9412 28.8052 32.9951 28.8198C33.1617 28.8491 33.3774 28.6342 33.3774 28.4389C33.3774 28.2289 33.3578 28.2142 32.2598 27.5891C31.2745 27.0225 31.1372 26.9835 30.9657 27.1984Z" fill="#111827"/>
</g>
<defs>
<clipPath id="clip0_1_278">
<rect width="107" height="57" fill="white"/>
</clipPath>
<clipPath id="clip1_1_278">
<rect width="25" height="25" fill="white" transform="translate(29 7)"/>
</clipPath>
</defs>
</svg>
