<svg width="107" height="57" viewBox="0 0 107 57" fill="none" xmlns="http://www.w3.org/2000/svg">
<g clip-path="url(#clip0_1_300)">
<path d="M88.6514 48.6949H8.26574C7.3409 48.6949 6.59113 47.9414 6.59113 47.0121V41.9635H88.6514V48.6949Z" fill="#C80D12"/>
<path d="M88.6514 55.4246C92.3507 55.4246 95.3492 52.4113 95.3492 48.6941C95.3492 44.9769 92.3507 41.9635 88.6514 41.9635C84.9522 41.9635 81.9536 44.9769 81.9536 48.6941C81.9536 52.4113 84.9522 55.4246 88.6514 55.4246Z" fill="white"/>
<path d="M33.3869 55.4246C37.0861 55.4246 40.0848 52.4113 40.0848 48.6941C40.0848 44.9769 37.0861 41.9635 33.3869 41.9635C29.6878 41.9635 26.6891 44.9769 26.6891 48.6941C26.6891 52.4113 29.6878 55.4246 33.3869 55.4246Z" fill="white"/>
<path d="M19.9891 55.4246C23.6882 55.4246 26.687 52.4113 26.687 48.6941C26.687 44.9769 23.6882 41.9635 19.9891 41.9635C16.29 41.9635 13.2913 44.9769 13.2913 48.6941C13.2913 52.4113 16.29 55.4246 19.9891 55.4246Z" fill="white"/>
<path d="M19.9888 45.9886H19.9614C18.5412 45.9886 17.4036 47.1487 17.4036 48.5796C17.4036 50.0105 18.5687 51.1705 19.9888 51.1705C21.4089 51.1705 22.5603 50.0105 22.5603 48.5796C22.5603 47.1487 21.4089 45.9886 19.9888 45.9886Z" fill="#111827"/>
<path d="M33.5249 45.9886H33.4975C32.0774 45.9886 30.9398 47.1487 30.9398 48.5796C30.9398 50.0105 32.1048 51.1705 33.5249 51.1705C34.945 51.1705 36.0964 50.0105 36.0964 48.5796C36.0964 47.1487 34.945 45.9886 33.5249 45.9886Z" fill="#111827"/>
<path d="M88.6353 46.6364H88.6115C87.3687 46.6364 86.3735 47.6514 86.3735 48.9034C86.3735 50.1554 87.3932 51.1704 88.6353 51.1704C89.878 51.1704 90.8855 50.1554 90.8855 48.9034C90.8855 47.6514 89.878 46.6364 88.6353 46.6364Z" fill="#111827"/>
<path d="M105.525 28.0837L103.419 25.9667L99.1742 13.1719C99.8078 12.9697 100.267 12.3745 100.267 11.6715C100.267 10.8019 99.5648 10.0969 98.6998 10.0969H83.5193V3.25738C83.5193 1.46116 82.0658 0 80.2777 0H3.24155C1.45406 0.000209937 0 1.46158 0 3.25738V40.2806C0 42.0768 1.45406 43.538 3.24155 43.538H5.02402V47.0112C5.02402 48.8074 6.47808 50.2686 8.26556 50.2686H11.8738C12.6083 54.0979 15.9667 57 19.9885 57C22.7424 57 25.1845 55.6383 26.6872 53.5512C28.1901 55.6383 30.6322 57 33.3861 57C37.4079 57 40.7665 54.0979 41.5009 50.2686H80.5362C81.271 54.0979 84.6293 57 88.6514 57C93.2086 57 96.9169 53.2738 96.9169 48.6941C96.9169 48.6579 96.9143 48.6225 96.9143 48.5865H103.724C105.511 48.5865 106.965 47.1254 106.965 45.3292V31.5766C106.965 30.2572 106.454 29.0166 105.525 28.0837ZM11.8738 47.1198H8.26556C8.206 47.1198 8.15778 47.0712 8.15778 47.0114V43.5382H13.5155C12.7048 44.564 12.1297 45.7849 11.8738 47.1198ZM19.9885 53.8516C17.1587 53.8516 14.8567 51.538 14.8567 48.6946C14.8567 45.862 17.1416 43.556 19.9565 43.5384H20.0209C22.8358 43.5558 25.1208 45.8618 25.1208 48.6946C25.1205 51.5378 22.8183 53.8516 19.9885 53.8516ZM33.3863 53.8516C30.5566 53.8516 28.2543 51.538 28.2543 48.6946C28.2543 45.862 30.5392 43.556 33.3542 43.5384H33.4185C36.2334 43.5558 38.5183 45.8618 38.5183 48.6946C38.5181 51.5378 36.2161 53.8516 33.3863 53.8516ZM80.5368 47.1198H41.501C41.2451 45.7849 40.6699 44.5638 39.8592 43.538H70.2294C71.0951 43.538 71.7964 42.833 71.7964 41.9635C71.7964 41.0939 71.0951 40.389 70.2294 40.389H3.24155C3.18201 40.389 3.13375 40.3405 3.13375 40.2806V3.25738C3.13375 3.19755 3.18201 3.14906 3.24155 3.14906H80.2777C80.337 3.14906 80.3854 3.19755 80.3854 3.25738V40.3892H76.9291C76.0635 40.3892 75.3622 41.0942 75.3622 41.9637C75.3622 42.8332 76.0635 43.5382 76.9291 43.5382H82.1786C81.3677 44.564 80.7927 45.7849 80.5368 47.1198ZM100.433 26.9254H90.3261C90.2668 26.9254 90.2184 26.877 90.2184 26.8171V19.9772H98.1287L100.433 26.9254ZM88.6514 53.8516C85.8217 53.8516 83.5193 51.538 83.5193 48.6946C83.5193 45.862 85.8043 43.556 88.6192 43.5384H88.6514C88.6553 43.5384 88.6585 43.538 88.6624 43.5378C91.4869 43.5437 93.7836 45.8546 93.7836 48.6945C93.7829 51.5378 91.4811 53.8516 88.6514 53.8516ZM103.831 35.3406H102.049C101.183 35.3406 100.482 36.0456 100.482 36.9151C100.482 37.7847 101.183 38.4896 102.049 38.4896H103.831V45.3296C103.831 45.3894 103.783 45.4379 103.724 45.4379H96.2542C94.9915 42.4721 92.0593 40.3885 88.6514 40.3885C88.6405 40.3885 88.6302 40.3894 88.6192 40.3894H83.5193V13.3547C83.5193 13.2949 83.5676 13.2456 83.6276 13.2456H95.8959L97.0838 16.8279H88.6514C87.7858 16.8279 87.0845 17.5329 87.0845 18.4025V26.8169C87.0845 28.6132 88.5386 30.0743 90.3261 30.0743H103.075L103.309 30.3103C103.646 30.6487 103.831 31.0984 103.831 31.5768V35.3406Z" fill="#111827"/>
<path d="M8.56684 38.2761H75.5552C76.4202 38.2761 77.1215 37.5711 77.1215 36.7016C77.1215 35.832 76.4202 35.1271 75.5552 35.1271H8.56684C7.70156 35.1271 7 35.832 7 36.7016C7 37.5711 7.70156 38.2761 8.56684 38.2761Z" fill="#111827"/>
</g>
<g clip-path="url(#clip1_1_300)">
<path d="M42.8872 6.18879C43.5577 5.62945 44.2836 5.26697 45.1683 5.26697C46.9975 5.26697 48.4858 6.77853 48.4858 8.63649C48.4858 9.36726 48.2598 10.0616 47.8319 10.6455L47.8311 10.6464L47.8271 10.6514L47.8111 10.6708L47.749 10.7467L47.5125 11.0355L46.6644 12.0712C45.9602 12.9311 45.0158 14.0844 44.0548 15.2581C42.2577 17.4529 40.4025 19.7189 39.9518 20.2704C39.9734 20.0659 39.9844 19.8583 39.9844 19.6481C39.9844 16.4465 37.4199 13.8418 34.2677 13.8418C34.0659 13.8418 33.8666 13.8526 33.6703 13.8734L42.8872 6.18879ZM34.2676 25.4544C34.4922 25.4544 34.7139 25.441 34.9318 25.4153C34.6686 25.7729 34.445 26.1622 34.2676 26.5766C34.0903 26.1622 33.8666 25.7729 33.6035 25.4153C33.8214 25.441 34.043 25.4544 34.2676 25.4544ZM52.9759 13.8614C52.3966 12.0553 50.6099 10.8959 48.7595 10.9628C49.1973 10.2686 49.4279 9.47087 49.4279 8.63642C49.4279 6.25083 47.5171 4.31006 45.1683 4.31006C44.0915 4.31006 43.0645 4.71878 42.275 5.46118L30.5618 15.227C30.5463 15.2399 30.5324 15.2537 30.5196 15.2674C29.3142 16.3326 28.5509 17.9015 28.5509 19.6481C28.5509 20.171 28.6196 20.6778 28.7479 21.16L28.7253 21.1816L28.619 21.2832C28.527 21.3711 28.3948 21.4976 28.2339 21.6518C27.912 21.96 27.4753 22.3789 27.0156 22.8214C26.0967 23.7061 25.0857 24.686 24.7199 25.0644C23.9201 25.8916 23.3052 27.424 23.3052 28.8837C23.3052 32.0854 25.8697 34.6901 29.022 34.6901C31.3676 34.6901 33.3873 33.2478 34.2677 31.191C35.148 33.2478 37.1677 34.6901 39.5133 34.6901C41.7824 34.6901 43.7467 33.3403 44.6694 31.39L51.3705 19.6968C51.4463 19.5643 51.4537 19.433 51.415 19.3193C51.3767 19.2065 51.294 19.1136 51.1936 19.0541C51.0931 18.9948 50.9727 18.9677 50.8572 18.9895C50.7409 19.0116 50.6321 19.0829 50.5562 19.2154L45.219 28.5288C45.0378 25.4918 42.5482 23.0774 39.5133 23.0774C39.2923 23.0774 39.0742 23.0904 38.8596 23.1153L38.8913 23.0769L39.1382 22.7777C39.3516 22.519 39.658 22.1476 40.0299 21.6965C40.7739 20.7943 41.7802 19.5734 42.8298 18.2985C44.9239 15.7551 47.1903 12.9966 47.8878 12.1271C48.6836 11.7527 49.6 11.8546 50.3845 12.2537C51.1715 12.6541 51.8214 13.3515 52.08 14.1578C52.3739 15.0739 52.2943 16.0866 51.8618 16.9358C51.7925 17.072 51.7916 17.2035 51.8357 17.3151C51.8796 17.4258 51.9667 17.5145 52.0699 17.5687C52.1732 17.6229 52.2948 17.6439 52.409 17.6162C52.5241 17.5883 52.6293 17.5116 52.6987 17.3755C53.2463 16.2999 53.3473 15.0192 52.9759 13.8614ZM34.2676 14.7987C36.9003 14.7987 39.0422 16.9741 39.0422 19.6481C39.0422 22.2742 36.8551 24.4975 34.2676 24.4975C31.635 24.4975 29.493 22.3221 29.493 19.6481C29.4931 16.9742 31.635 14.7987 34.2676 14.7987ZM28.0421 23.1632L29.1037 22.1372C29.2664 22.484 29.4618 22.8118 29.6861 23.1166C29.4682 23.0908 29.2466 23.0774 29.022 23.0774C28.688 23.0774 28.3606 23.107 28.0421 23.1632ZM29.022 33.7332C26.3893 33.7332 24.2474 31.5577 24.2474 28.8837C24.2474 27.6451 24.7076 26.5139 25.4627 25.6559C26.3963 24.6545 27.6486 24.0343 29.022 24.0343C31.6547 24.0343 33.7966 26.2098 33.7966 28.8838C33.7966 31.5577 31.6547 33.7332 29.022 33.7332ZM44.2879 28.8837C44.2879 31.5576 42.146 33.7332 39.5133 33.7332C36.8806 33.7332 34.7387 31.5577 34.7387 28.8837C34.7387 26.2097 36.8806 24.0343 39.5133 24.0343C42.146 24.0343 44.2879 26.2098 44.2879 28.8837Z" fill="#111827"/>
<path d="M42.8872 6.18879L42.8657 6.16216M42.8872 6.18879C43.5577 5.62945 44.2836 5.26697 45.1683 5.26697C46.9975 5.26697 48.4858 6.77853 48.4858 8.63649C48.4858 9.36726 48.2598 10.0616 47.8319 10.6455L47.8311 10.6464L47.8271 10.6513L47.8111 10.6708L47.749 10.7467L47.5125 11.0355L46.6644 12.0712C45.9602 12.9311 45.0158 14.0844 44.0548 15.2581C42.2577 17.4529 40.4025 19.7189 39.9518 20.2704C39.9734 20.0659 39.9844 19.8583 39.9844 19.6481C39.9844 16.4465 37.4199 13.8418 34.2677 13.8418C34.0659 13.8418 33.8666 13.8526 33.6703 13.8734L42.8872 6.18879ZM34.2676 25.4544C34.4922 25.4544 34.7139 25.441 34.9318 25.4153C34.6686 25.7729 34.445 26.1622 34.2676 26.5766C34.0903 26.1622 33.8666 25.7729 33.6035 25.4153C33.8214 25.441 34.043 25.4544 34.2676 25.4544ZM52.9759 13.8614C52.3966 12.0553 50.6099 10.8959 48.7595 10.9628C49.1973 10.2686 49.4279 9.47087 49.4279 8.63642C49.4279 6.25083 47.5171 4.31006 45.1683 4.31006C44.0915 4.31006 43.0645 4.71878 42.275 5.46118L30.5618 15.227C30.5463 15.2399 30.5324 15.2537 30.5196 15.2674C29.3142 16.3326 28.5509 17.9015 28.5509 19.6481C28.5509 20.171 28.6196 20.6778 28.7479 21.16L28.7253 21.1816L28.619 21.2832C28.527 21.3711 28.3948 21.4976 28.2339 21.6518C27.912 21.96 27.4753 22.3789 27.0156 22.8214C26.0967 23.7061 25.0857 24.686 24.7199 25.0644C23.9201 25.8916 23.3052 27.424 23.3052 28.8837C23.3052 32.0854 25.8697 34.6901 29.022 34.6901C31.3676 34.6901 33.3873 33.2478 34.2677 31.191C35.148 33.2478 37.1677 34.6901 39.5133 34.6901C41.7824 34.6901 43.7467 33.3403 44.6694 31.39L51.3705 19.6968C51.4463 19.5643 51.4537 19.433 51.415 19.3193C51.3767 19.2065 51.294 19.1136 51.1936 19.0541C51.0931 18.9948 50.9727 18.9677 50.8572 18.9895C50.7409 19.0116 50.6321 19.0829 50.5562 19.2154L45.219 28.5288C45.0378 25.4918 42.5482 23.0774 39.5133 23.0774C39.2923 23.0774 39.0742 23.0904 38.8596 23.1153L38.8913 23.0769L39.1382 22.7777C39.3516 22.519 39.658 22.1476 40.0299 21.6965C40.7739 20.7943 41.7802 19.5734 42.8298 18.2985C44.9239 15.7551 47.1903 12.9966 47.8878 12.1271C48.6836 11.7527 49.6 11.8546 50.3845 12.2537C51.1715 12.6541 51.8214 13.3515 52.08 14.1578C52.3739 15.0739 52.2943 16.0866 51.8618 16.9358C51.7925 17.072 51.7916 17.2035 51.8357 17.3151C51.8796 17.4258 51.9667 17.5145 52.0699 17.5687C52.1732 17.6229 52.2948 17.6439 52.409 17.6162C52.5241 17.5883 52.6293 17.5116 52.6987 17.3755C53.2463 16.2999 53.3473 15.0192 52.9759 13.8614ZM34.2676 14.7987C36.9003 14.7987 39.0422 16.9741 39.0422 19.6481C39.0422 22.2742 36.8551 24.4975 34.2676 24.4975C31.635 24.4975 29.493 22.3221 29.493 19.6481C29.4931 16.9742 31.635 14.7987 34.2676 14.7987ZM28.0421 23.1632L29.1037 22.1372C29.2664 22.484 29.4618 22.8118 29.6861 23.1166C29.4682 23.0908 29.2466 23.0774 29.022 23.0774C28.688 23.0774 28.3606 23.107 28.0421 23.1632ZM29.022 33.7332C26.3893 33.7332 24.2474 31.5577 24.2474 28.8837C24.2474 27.6451 24.7076 26.5139 25.4627 25.6559C26.3963 24.6545 27.6486 24.0343 29.022 24.0343C31.6547 24.0343 33.7966 26.2098 33.7966 28.8838C33.7966 31.5577 31.6547 33.7332 29.022 33.7332ZM44.2879 28.8837C44.2879 31.5576 42.146 33.7332 39.5133 33.7332C36.8806 33.7332 34.7387 31.5577 34.7387 28.8837C34.7387 26.2097 36.8806 24.0343 39.5133 24.0343C42.146 24.0343 44.2879 26.2098 44.2879 28.8837Z" stroke="#111827" stroke-width="0.2"/>
<path d="M34.2676 23.9399C36.5976 23.9399 38.4932 22.0146 38.4932 19.648C38.4932 17.2815 36.5977 15.3562 34.2676 15.3562C33.4587 15.3562 32.6711 15.5911 31.9899 16.0357C31.5144 16.3459 31.9869 17.093 32.4625 16.7828C33.0024 16.4305 33.6266 16.2442 34.2676 16.2442C36.1155 16.2442 37.6189 17.7711 37.6189 19.648C37.6189 21.525 36.1155 23.0519 34.2676 23.0519C32.4196 23.0519 30.9163 21.525 30.9163 19.648C30.9163 19.2149 30.9967 18.7911 31.1552 18.3887C31.3652 17.8557 30.5534 17.5258 30.3434 18.0588C30.1434 18.5667 30.042 19.1014 30.042 19.6481C30.042 22.0146 31.9376 23.9399 34.2676 23.9399Z" fill="#111827"/>
<path d="M29.0219 24.5918C26.6919 24.5918 24.7963 26.5171 24.7963 28.8836C24.7963 31.2502 26.6919 33.1755 29.0219 33.1755C31.3519 33.1755 33.2476 31.2502 33.2476 28.8836C33.2476 26.517 31.3519 24.5918 29.0219 24.5918ZM29.0219 32.2874C27.174 32.2874 25.6706 30.7605 25.6706 28.8836C25.6706 27.0067 27.174 25.4797 29.0219 25.4797C30.8698 25.4797 32.3733 27.0067 32.3733 28.8836C32.3733 30.7605 30.8698 32.2874 29.0219 32.2874Z" fill="#111827"/>
<path d="M39.5133 33.1755C41.8433 33.1755 43.7389 31.2503 43.7389 28.8837C43.7389 26.5171 41.8433 24.5918 39.5133 24.5918C37.1833 24.5918 35.2877 26.5171 35.2877 28.8837C35.2877 31.2503 37.1833 33.1755 39.5133 33.1755ZM39.5133 25.4799C41.3612 25.4799 42.8646 27.0068 42.8646 28.8837C42.8646 30.7607 41.3612 32.2875 39.5133 32.2875C37.6654 32.2875 36.162 30.7606 36.162 28.8837C36.162 27.0067 37.6654 25.4799 39.5133 25.4799Z" fill="#111827"/>
<path d="M53.1446 20.1202L46.9117 31.085C46.6788 31.4947 46.6788 31.9844 46.9117 32.3942C47.1447 32.804 47.5622 33.0488 48.0281 33.0488H60.4939C60.9595 33.0488 61.3774 32.804 61.61 32.3942C61.843 31.9844 61.843 31.4947 61.61 31.085L55.3773 20.1202C55.1443 19.7104 54.7268 19.4656 54.2609 19.4656C53.795 19.4656 53.3775 19.7104 53.1446 20.1202ZM61.1715 32.1369C61.0297 32.3859 60.7768 32.5342 60.4939 32.5342H48.0281C47.7451 32.5342 47.492 32.3859 47.3505 32.1369C47.209 31.888 47.209 31.5912 47.3505 31.3423L53.5834 20.3775C53.7248 20.1286 53.978 19.9802 54.2609 19.9802C54.5439 19.9802 54.797 20.1286 54.9385 20.3775L61.1715 31.3423C61.3129 31.5912 61.3129 31.888 61.1715 32.1369Z" fill="#C80D12"/>
<path d="M53.1446 20.1202L53.1739 20.1374M53.1446 20.1202L46.9117 31.085C46.6788 31.4947 46.6788 31.9844 46.9117 32.3942C47.1447 32.804 47.5622 33.0488 48.0281 33.0488H60.4939C60.9595 33.0488 61.3774 32.804 61.61 32.3942C61.843 31.9844 61.843 31.4947 61.61 31.085L55.3773 20.1202C55.1443 19.7104 54.7268 19.4656 54.2609 19.4656C53.795 19.4656 53.3775 19.7104 53.1446 20.1202ZM61.1715 32.1369C61.0297 32.3859 60.7768 32.5342 60.4939 32.5342H48.0281C47.7451 32.5342 47.492 32.3859 47.3505 32.1369C47.209 31.888 47.209 31.5912 47.3505 31.3423L53.5834 20.3775C53.7248 20.1286 53.978 19.9802 54.2609 19.9802C54.5439 19.9802 54.797 20.1286 54.9385 20.3775L61.1715 31.3423C61.3129 31.5912 61.3129 31.888 61.1715 32.1369Z" stroke="#C80D12" stroke-width="0.2"/>
<path d="M55.0361 22.3077C55.1663 22.2312 55.3329 22.2766 55.408 22.4091L55.0361 22.3077ZM55.0361 22.3077C54.9059 22.3842 54.8613 22.5536 54.9365 22.686L59.7536 31.1758H55.9369C55.7865 31.1758 55.6647 31.2999 55.6647 31.4528C55.6647 31.6057 55.7865 31.7298 55.9369 31.7298H60.2254C60.3227 31.7298 60.4126 31.6769 60.461 31.5913C60.5095 31.5056 60.5095 31.4 60.461 31.3143L55.408 22.4091L55.0361 22.3077Z" fill="#C80D12"/>
<path d="M55.0361 22.3077C55.1663 22.2312 55.3329 22.2766 55.408 22.4091M55.0361 22.3077L55.408 22.4091M55.0361 22.3077C54.9059 22.3842 54.8613 22.5536 54.9365 22.686L59.7536 31.1758H55.9369C55.7865 31.1758 55.6647 31.2999 55.6647 31.4528C55.6647 31.6057 55.7865 31.7298 55.9369 31.7298H60.2254C60.3227 31.7298 60.4126 31.6769 60.461 31.5913C60.5095 31.5056 60.5095 31.4 60.461 31.3143L55.408 22.4091" stroke="#C80D12" stroke-width="0.2"/>
<path d="M52.5539 31.1892H48.8388L54.2902 21.5955L54.5299 22.0174C54.6033 22.1466 54.766 22.1909 54.8933 22.1163C55.0205 22.0416 55.064 21.8764 54.9906 21.7471L54.5205 20.9198C54.473 20.8362 54.3852 20.7847 54.2902 20.7847C54.1951 20.7847 54.1073 20.8362 54.0598 20.9198L48.1478 31.3244C48.1002 31.408 48.1002 31.511 48.1478 31.5946C48.1953 31.6782 48.2831 31.7297 48.3781 31.7297H52.5539C52.7008 31.7297 52.8199 31.6087 52.8199 31.4595C52.8199 31.3102 52.7008 31.1892 52.5539 31.1892Z" fill="#C80D12" stroke="#C80D12" stroke-width="0.2"/>
<path d="M54.261 29.9141C53.7333 29.9141 53.3041 30.35 53.3041 30.8859C53.3041 31.4219 53.7333 31.8578 54.261 31.8578C54.7887 31.8578 55.2179 31.4219 55.2179 30.8859C55.2179 30.35 54.7887 29.9141 54.261 29.9141ZM54.261 31.3432C54.0127 31.3432 53.8107 31.138 53.8107 30.8859C53.8107 30.6338 54.0127 30.4287 54.261 30.4287C54.5092 30.4287 54.7112 30.6338 54.7112 30.8859C54.7112 31.138 54.5092 31.3432 54.261 31.3432Z" fill="#C80D12" stroke="#C80D12" stroke-width="0.2"/>
<path d="M53.4507 24.5901C53.359 24.6883 53.3104 24.822 53.3174 24.9572L53.5272 29.0065C53.5409 29.2697 53.7549 29.476 54.0144 29.476H54.5075C54.767 29.476 54.981 29.2697 54.9947 29.0065L55.2045 24.9572C55.2115 24.822 55.1629 24.6883 55.0712 24.5901C54.9795 24.4919 54.8505 24.4357 54.7173 24.4357H53.8046C53.6713 24.4357 53.5424 24.4919 53.4507 24.5901ZM54.6975 24.9503L54.4896 28.9614H54.0322L53.8244 24.9503H54.6975Z" fill="#C80D12"/>
<path d="M53.5272 29.0065L53.3174 24.9572C53.3104 24.822 53.359 24.6883 53.4507 24.5901C53.5424 24.4919 53.6713 24.4357 53.8046 24.4357H54.7173C54.8505 24.4357 54.9795 24.4919 55.0712 24.5901C55.1629 24.6883 55.2115 24.822 55.2045 24.9572L54.9947 29.0065M53.5272 29.0065L53.5611 29.0047M53.5272 29.0065C53.5409 29.2697 53.7549 29.476 54.0144 29.476H54.5075C54.767 29.476 54.981 29.2697 54.9947 29.0065M54.9947 29.0065L54.9608 29.0047M54.6975 24.9503L54.4896 28.9614H54.0322L53.8244 24.9503H54.6975Z" stroke="#C80D12" stroke-width="0.2"/>
</g>
<defs>
<clipPath id="clip0_1_300">
<rect width="107" height="57" fill="white"/>
</clipPath>
<clipPath id="clip1_1_300">
<rect width="39" height="31" fill="white" transform="translate(23 4)"/>
</clipPath>
</defs>
</svg>
