<svg width="107" height="57" viewBox="0 0 107 57" fill="none" xmlns="http://www.w3.org/2000/svg">
<g clip-path="url(#clip0_1_226)">
<path d="M88.6515 48.6948H8.2658C7.34096 48.6948 6.59119 47.9413 6.59119 47.012V41.9634H88.6515V48.6948Z" fill="#C80D12"/>
<path d="M88.6514 55.4245C92.3507 55.4245 95.3492 52.4112 95.3492 48.694C95.3492 44.9767 92.3507 41.9634 88.6514 41.9634C84.9522 41.9634 81.9536 44.9767 81.9536 48.694C81.9536 52.4112 84.9522 55.4245 88.6514 55.4245Z" fill="white"/>
<path d="M33.3869 55.4245C37.0861 55.4245 40.0848 52.4112 40.0848 48.694C40.0848 44.9767 37.0861 41.9634 33.3869 41.9634C29.6878 41.9634 26.6891 44.9767 26.6891 48.694C26.6891 52.4112 29.6878 55.4245 33.3869 55.4245Z" fill="white"/>
<path d="M19.9891 55.4245C23.6882 55.4245 26.687 52.4112 26.687 48.694C26.687 44.9767 23.6882 41.9634 19.9891 41.9634C16.29 41.9634 13.2913 44.9767 13.2913 48.694C13.2913 52.4112 16.29 55.4245 19.9891 55.4245Z" fill="white"/>
<path d="M19.9887 45.9885H19.9613C18.5412 45.9885 17.4036 47.1485 17.4036 48.5794C17.4036 50.0103 18.5686 51.1703 19.9887 51.1703C21.4088 51.1703 22.5602 50.0103 22.5602 48.5794C22.5602 47.1485 21.4088 45.9885 19.9887 45.9885Z" fill="#111827"/>
<path d="M33.5248 45.9885H33.4974C32.0773 45.9885 30.9397 47.1485 30.9397 48.5794C30.9397 50.0103 32.1048 51.1703 33.5248 51.1703C34.945 51.1703 36.0963 50.0103 36.0963 48.5794C36.0963 47.1485 34.945 45.9885 33.5248 45.9885Z" fill="#111827"/>
<path d="M88.6353 46.6365H88.6115C87.3687 46.6365 86.3735 47.6515 86.3735 48.9035C86.3735 50.1555 87.3932 51.1706 88.6353 51.1706C89.878 51.1706 90.8855 50.1555 90.8855 48.9035C90.8855 47.6515 89.878 46.6365 88.6353 46.6365Z" fill="#111827"/>
<path d="M105.525 28.0837L103.419 25.9667L99.1742 13.1719C99.8078 12.9697 100.267 12.3745 100.267 11.6715C100.267 10.8019 99.5648 10.0969 98.6998 10.0969H83.5193V3.25738C83.5193 1.46116 82.0658 0 80.2777 0H3.24155C1.45406 0.000209937 0 1.46158 0 3.25738V40.2806C0 42.0768 1.45406 43.538 3.24155 43.538H5.02402V47.0112C5.02402 48.8074 6.47808 50.2686 8.26556 50.2686H11.8738C12.6083 54.0979 15.9667 57 19.9885 57C22.7424 57 25.1845 55.6383 26.6872 53.5512C28.1901 55.6383 30.6322 57 33.3861 57C37.4079 57 40.7665 54.0979 41.5009 50.2686H80.5362C81.271 54.0979 84.6293 57 88.6514 57C93.2086 57 96.9169 53.2738 96.9169 48.6941C96.9169 48.6579 96.9143 48.6225 96.9143 48.5865H103.724C105.511 48.5865 106.965 47.1254 106.965 45.3292V31.5766C106.965 30.2572 106.454 29.0166 105.525 28.0837ZM11.8738 47.1198H8.26556C8.206 47.1198 8.15778 47.0712 8.15778 47.0114V43.5382H13.5155C12.7048 44.564 12.1297 45.7849 11.8738 47.1198ZM19.9885 53.8516C17.1587 53.8516 14.8567 51.538 14.8567 48.6946C14.8567 45.862 17.1416 43.556 19.9565 43.5384H20.0209C22.8358 43.5558 25.1208 45.8618 25.1208 48.6946C25.1205 51.5378 22.8183 53.8516 19.9885 53.8516ZM33.3863 53.8516C30.5566 53.8516 28.2543 51.538 28.2543 48.6946C28.2543 45.862 30.5392 43.556 33.3542 43.5384H33.4185C36.2334 43.5558 38.5183 45.8618 38.5183 48.6946C38.5181 51.5378 36.2161 53.8516 33.3863 53.8516ZM80.5368 47.1198H41.501C41.2451 45.7849 40.6699 44.5638 39.8592 43.538H70.2294C71.0951 43.538 71.7964 42.833 71.7964 41.9635C71.7964 41.0939 71.0951 40.389 70.2294 40.389H3.24155C3.18201 40.389 3.13375 40.3405 3.13375 40.2806V3.25738C3.13375 3.19755 3.18201 3.14906 3.24155 3.14906H80.2777C80.337 3.14906 80.3854 3.19755 80.3854 3.25738V40.3892H76.9291C76.0635 40.3892 75.3622 41.0942 75.3622 41.9637C75.3622 42.8332 76.0635 43.5382 76.9291 43.5382H82.1786C81.3677 44.564 80.7927 45.7849 80.5368 47.1198ZM100.433 26.9254H90.3261C90.2668 26.9254 90.2184 26.877 90.2184 26.8171V19.9772H98.1287L100.433 26.9254ZM88.6514 53.8516C85.8217 53.8516 83.5193 51.538 83.5193 48.6946C83.5193 45.862 85.8043 43.556 88.6192 43.5384H88.6514C88.6553 43.5384 88.6585 43.538 88.6624 43.5378C91.4869 43.5437 93.7836 45.8546 93.7836 48.6945C93.7829 51.5378 91.4811 53.8516 88.6514 53.8516ZM103.831 35.3406H102.049C101.183 35.3406 100.482 36.0456 100.482 36.9151C100.482 37.7847 101.183 38.4896 102.049 38.4896H103.831V45.3296C103.831 45.3894 103.783 45.4379 103.724 45.4379H96.2542C94.9915 42.4721 92.0593 40.3885 88.6514 40.3885C88.6405 40.3885 88.6302 40.3894 88.6192 40.3894H83.5193V13.3547C83.5193 13.2949 83.5676 13.2456 83.6276 13.2456H95.8959L97.0838 16.8279H88.6514C87.7858 16.8279 87.0845 17.5329 87.0845 18.4025V26.8169C87.0845 28.6132 88.5386 30.0743 90.3261 30.0743H103.075L103.309 30.3103C103.646 30.6487 103.831 31.0984 103.831 31.5768V35.3406Z" fill="#111827"/>
<path d="M8.26557 38.2763H75.2539C76.1189 38.2763 76.8202 37.5713 76.8202 36.7017C76.8202 35.8321 76.1189 35.1272 75.2539 35.1272H8.26557C7.40029 35.1272 6.69873 35.8321 6.69873 36.7017C6.69873 37.5713 7.40029 38.2763 8.26557 38.2763Z" fill="#111827"/>
<path d="M48.775 35.6241H46.1288V24.9873H47.1873C47.5048 24.9873 47.7165 24.7746 47.7165 24.4555V13.8186C47.7165 13.4995 47.5048 13.2868 47.1873 13.2868H46.8168L45.5466 10.8936C45.4407 10.734 45.282 10.6276 45.0702 10.6276H44.541V9.56389C44.541 9.24482 44.3293 9.03204 44.0118 9.03204H43.7471L41.8947 6.69199V5.30916C41.8947 4.99006 41.683 4.77734 41.3655 4.77734C41.0479 4.77734 40.8362 4.99006 40.8362 5.30916V6.69199L38.9838 9.03204H38.7192C38.4016 9.03204 38.1899 9.24482 38.1899 9.56389V10.6276H37.6607C37.449 10.6276 37.2902 10.734 37.1843 10.8936L35.9141 13.2868H35.5437C35.2261 13.2868 35.0144 13.4995 35.0144 13.8186V24.4555C35.0144 24.7746 35.2261 24.9873 35.5437 24.9873H36.6021V35.6242H33.9559C33.6384 35.6242 33.4266 35.8368 33.4266 36.1559C33.4266 36.475 33.6384 36.6878 33.9559 36.6878H35.5437H47.1873H48.775C49.0926 36.6878 49.3043 36.475 49.3043 36.1559C49.3043 35.8368 49.0926 35.6241 48.775 35.6241ZM39.7777 34.0285C39.7777 34.3477 39.566 34.5603 39.2485 34.5603C38.9309 34.5603 38.7192 34.3477 38.7192 34.0285V26.5828C38.7192 26.2637 38.9309 26.051 39.2485 26.051C39.566 26.051 39.7777 26.2637 39.7777 26.5828V34.0285ZM41.8947 34.0285C41.8947 34.3477 41.683 34.5603 41.3655 34.5603C41.0479 34.5603 40.8362 34.3477 40.8362 34.0285V26.5828C40.8362 26.2637 41.0479 26.051 41.3655 26.051C41.683 26.051 41.8947 26.2637 41.8947 26.5828V34.0285ZM44.0118 34.0285C44.0118 34.3477 43.8 34.5603 43.4825 34.5603C43.1649 34.5603 42.9532 34.3477 42.9532 34.0285V26.5828C42.9532 26.2637 43.1649 26.051 43.4825 26.051C43.8 26.051 44.0118 26.2637 44.0118 26.5828V34.0285ZM41.3655 22.8599C39.3014 22.8599 37.6607 21.2112 37.6607 19.137C37.6607 17.0629 39.3014 15.4142 41.3655 15.4142C43.4296 15.4142 45.0702 17.0629 45.0702 19.137C45.0702 21.2112 43.4296 22.8599 41.3655 22.8599Z" fill="#111827"/>
<path d="M42.4239 18.6052H41.8946V17.5416C41.8946 17.2225 41.683 17.0098 41.3654 17.0098C41.0479 17.0098 40.8362 17.2225 40.8362 17.5416V19.1371C40.8362 19.4562 41.0479 19.6689 41.3654 19.6689H42.4239C42.7415 19.6689 42.9532 19.4562 42.9532 19.1371C42.9532 18.818 42.7415 18.6052 42.4239 18.6052Z" fill="#111827"/>
</g>
<defs>
<clipPath id="clip0_1_226">
<rect width="107" height="57" fill="white"/>
</clipPath>
</defs>
</svg>
