<svg width="54" height="57" viewBox="0 0 54 57" fill="none" xmlns="http://www.w3.org/2000/svg">
<g clip-path="url(#clip0_1_258)">
<path d="M24.0834 0.225925C22.5757 0.404247 21.6378 0.56028 21.2697 0.716309C20.0825 1.20669 19.0497 2.49952 18.8716 3.72547C18.7885 4.36073 19.3227 8.54013 19.5958 9.29799C20.0113 10.4571 20.8067 11.4936 21.7209 12.1177L22.267 12.4855L21.7327 12.987C20.6761 14.0123 20.4506 14.9151 20.6999 17.0215C20.878 18.4258 21.4003 22.0925 21.4834 22.438L21.5428 22.6943H19.4889C17.5776 22.6943 17.3995 22.7166 17.1027 22.9284C16.6872 23.2404 16.6753 23.82 17.0908 24.21L17.3876 24.4887L21.4359 24.4552L25.4843 24.4218L25.7099 24.1543C26.0185 23.7977 25.9948 23.2962 25.6386 22.9729C25.3893 22.7278 25.2469 22.6943 24.4039 22.6943C23.4661 22.6943 23.4661 22.6943 23.3948 22.3823C23.2286 21.6132 22.5994 17.0661 22.5282 16.1633C22.4451 14.9485 22.6231 14.4916 23.3711 14.0123C24.4989 13.2879 25.6149 13.2656 27.0395 13.9232C27.8349 14.291 28.1674 14.5696 30.2568 16.5757C31.539 17.8016 32.5837 18.8493 32.5837 18.8827C32.5837 18.9273 32.1326 19.4065 31.5984 19.9638L30.6011 20.9668L29.5208 20.0529C28.9153 19.5403 28.2861 19.0945 28.108 19.061C27.4669 18.905 26.8733 19.518 27.0395 20.1532C27.087 20.3427 27.918 21.1006 29.2833 22.2485L31.4559 24.054L31.5865 25.7926C31.6577 26.7623 31.7171 27.5536 31.7052 27.5536C31.6933 27.5647 30.4112 27.6984 28.8559 27.8433C26.2322 28.0997 25.9948 28.1442 25.793 28.3783C25.2825 28.969 25.7217 29.8271 26.5409 29.8271C26.7665 29.8271 27.9893 29.7268 29.2596 29.6042C30.5299 29.4816 31.634 29.3813 31.7171 29.3813C31.8239 29.3813 31.8714 29.5708 31.8714 30.0166C31.8833 31.198 31.6696 31.0419 36.8576 33.661C39.5288 35.0207 41.6302 36.1575 41.7489 36.3024C42.0101 36.6479 44.6101 50.5792 44.432 50.6795C44.3607 50.7241 43.8977 50.8132 43.3991 50.8913C42.4019 51.0473 41.9151 51.2368 41.7964 51.5042C41.5471 52.1395 41.9626 52.7859 42.6393 52.7859C42.8411 52.7859 43.8502 52.6299 44.8831 52.4516L46.7708 52.1172L46.9844 52.3513C47.0913 52.485 47.1863 52.7525 47.1863 52.9419V53.3097L44.7288 53.7221C43.3635 53.9561 42.1288 54.1679 41.9626 54.2013L41.6658 54.2459L40.3718 47.6926C38.4485 37.8627 38.6028 38.5314 38.128 38.119C37.7955 37.8293 37.4987 37.7178 36.549 37.5172C33.3792 36.8597 30.6249 36.1018 29.4258 35.5445C28.5235 35.1322 26.9683 33.9174 26.1373 33.0035C25.0094 31.7441 24.8313 31.276 24.3446 28.278C24.1071 26.8514 23.8578 25.592 23.7985 25.4806C23.5017 24.9568 22.5757 24.979 22.1958 25.5252C22.0177 25.7815 22.0295 25.9598 22.4094 28.2111L22.8131 30.6184L21.5784 35.8789C20.9017 38.7655 20.3319 41.1393 20.32 41.1505C20.3081 41.1505 18.2661 42.6662 15.773 44.5051C13.2918 46.3441 10.6799 48.2164 9.97949 48.6622C9.24342 49.1303 8.63795 49.5984 8.54298 49.7768C8.34115 50.1334 8.30554 50.9135 8.47175 51.2033C8.81603 51.8051 12.6982 56.7647 12.9119 56.8761C13.363 57.1102 13.6242 57.0433 14.6214 56.408C16.3073 55.3493 16.6278 54.6694 16.1885 53.1314C16.1529 53.0422 18.2543 51.3928 21.4834 48.952L26.8258 44.9287L28.0605 42.0867C28.761 40.4818 29.2952 39.0775 29.3071 38.8658C29.3071 38.1636 28.2742 37.7847 27.7637 38.3085C27.645 38.4423 27.0276 39.7239 26.3984 41.1728L25.2706 43.8142L20.13 47.6815L14.9895 51.5488L14.4552 50.8578C13.7666 49.9551 13.5292 49.7768 13.0543 49.7768C12.5913 49.7768 12.1639 50.1891 12.1639 50.6461C12.1639 50.8132 12.5913 51.4819 13.2918 52.407C13.921 53.2206 14.4434 53.9561 14.479 54.0342C14.5502 54.2236 14.4434 54.3574 13.9803 54.6583L13.6004 54.9146L13.1374 54.3239C12.0215 52.8862 10.3831 50.6906 10.3831 50.6349C10.3831 50.5903 10.8461 50.2671 11.4279 49.8993C11.9977 49.5316 14.5383 47.6926 17.0908 45.798C20.6405 43.1566 21.7802 42.2539 21.9702 41.9195C22.1245 41.652 22.5994 39.8577 23.1455 37.5061L24.0715 33.5384L25.4487 34.8424C26.2085 35.5557 27.182 36.347 27.6094 36.6033C29.0103 37.4503 31.3728 38.2082 34.9581 38.9772C35.9079 39.1778 36.7152 39.3673 36.7627 39.4007C36.7983 39.4342 37.5344 43.0006 38.3891 47.3137C39.2439 51.6268 40.0275 55.249 40.1224 55.3827C40.4074 55.7616 40.9297 56.018 41.4284 56.018C42.1763 56.018 48.5159 54.9035 48.8246 54.7251C49.2164 54.4911 49.2995 54.1902 49.1808 53.41C48.9671 51.8609 48.8483 51.56 48.326 51.0584C47.9342 50.7018 47.6612 50.5569 47.1269 50.4343L46.4265 50.2671L45.1562 43.4241C44.4557 39.6571 43.8146 36.3804 43.7434 36.1352C43.5653 35.578 43.0904 34.9093 42.6987 34.6529C42.5325 34.5415 40.4667 33.4716 38.1042 32.279L33.8303 30.1058L33.7591 29.3256C33.7116 28.891 33.6403 27.9213 33.5929 27.1523C33.5098 25.8818 33.5216 25.7815 33.6997 25.9152C33.8422 26.0378 33.8897 26.2719 33.8897 27.0409C33.8897 28.0997 34.0677 28.5009 34.7563 28.9801C35.0887 29.2142 35.1837 29.2142 43.2923 29.2476C51.4127 29.281 53.0629 28.9999 53.0629 28.9999V26.2384L51.2227 26.3693V27.4867H43.4822H35.7892V27.052V26.6062L36.4184 26.5505C36.7508 26.5171 39.1252 26.4056 41.6895 26.3053C45.3461 26.1604 46.5214 26.1381 47.1744 26.2384C47.6255 26.3165 50.0118 26.3693 51.2227 26.3693L53.0629 26.2384V25.8372L53.0985 23.3742C53.1341 20.6771 53.0629 20.1532 53.0629 20.1532H50.2849L48.4091 20.1978L47.7086 20.599L47.0082 20.9891L41.8676 20.8108L36.7152 20.6325L36.2759 20.1421C35.8485 19.6629 35.8129 19.596 35.7417 18.6487C35.7061 18.0914 35.6705 16.598 35.6705 15.3163V12.9981H37.9855H40.3005V14.8371C40.3005 16.5088 40.3243 16.6983 40.5261 16.8878C40.8585 17.1998 41.4996 17.2555 43.8859 17.211C45.916 17.1775 45.9872 17.1664 46.284 16.91C46.5927 16.6426 46.5927 16.6314 46.5927 14.8148V12.9981H48.9077H51.2227V15.9516V20.1532H53.0629L53.0985 15.6284C53.0629 12.1623 53.0392 12.0508 52.2675 11.527L51.8757 11.2707L43.5891 11.2372C35.528 11.2149 35.3024 11.2149 34.8513 11.4267C34.602 11.5493 34.2814 11.8279 34.139 12.0285C33.9015 12.3852 33.8897 12.5635 33.8897 14.9485V17.4896L31.4322 15.1491C30.0669 13.8563 28.8441 12.7641 28.7016 12.7195C28.3217 12.6192 28.3573 12.5189 28.9509 12.062C29.6276 11.5381 30.5774 10.2119 30.9217 9.30914C31.1116 8.78532 31.2066 8.25035 31.2422 7.30302L31.3016 6.0102L32.928 5.76501C35.2787 5.40837 35.4093 5.36379 35.6348 4.92913C35.7892 4.60592 35.801 4.51677 35.6586 4.23814C35.3499 3.64745 35.0769 3.61402 33.1655 3.91493C32.2276 4.07096 31.3965 4.19356 31.3253 4.19356C31.2422 4.19356 31.1472 3.89264 31.0997 3.46913C30.886 1.51875 29.2596 0.0810394 27.1939 0.00302505C26.7309 -0.0192642 25.33 0.092186 24.0834 0.225925ZM27.8706 1.89768C28.6779 2.20974 29.2596 3.13478 29.2596 4.09325C29.2596 4.44989 29.2121 4.50562 28.939 4.56134C26.8021 4.95142 21.0204 5.75386 20.9255 5.6647C20.8661 5.60898 20.8067 5.1186 20.7949 4.56134C20.7711 3.64745 20.7949 3.52486 21.0917 3.11249C21.5784 2.4215 22.1126 2.24318 24.4514 1.98684C26.9683 1.71936 27.3957 1.70822 27.8706 1.89768ZM29.3783 7.01325C29.3783 9.50974 27.5738 11.5939 25.4012 11.5827C23.4186 11.5716 21.5072 9.96669 21.2341 8.06089L21.1629 7.55936L21.9702 7.43676C22.4213 7.36989 24.2021 7.09127 25.9354 6.82379C27.6687 6.5563 29.1527 6.32226 29.2358 6.32226C29.3308 6.31112 29.3783 6.52287 29.3783 7.01325ZM44.6932 14.2241V15.45H43.4466H42.2V14.2241V12.9981H43.4466H44.6932V14.2241ZM34.8038 21.2455C35.5636 22.0033 35.7773 22.1594 36.2997 22.2931C36.8339 22.4268 41.2265 22.6163 46.8301 22.7389C47.5187 22.75 47.673 22.7055 48.2547 22.3711C48.8602 22.0145 48.9908 21.981 50.0712 21.9365L51.2227 21.8919V23.2404V24.589H49.7744C48.9789 24.589 47.8867 24.5332 47.3406 24.4552C46.5214 24.3438 45.4055 24.3661 40.8585 24.5555C37.1426 24.7116 35.3024 24.7561 35.1481 24.6781C34.8513 24.5221 32.1089 22.2262 32.1089 22.1259C32.1089 22.0368 33.7709 20.3539 33.8659 20.3539C33.9015 20.3539 34.3289 20.7551 34.8038 21.2455Z" fill="#111827"/>
<path d="M51.2227 20.1532H50.2849L48.4091 20.1978L47.7086 20.599L47.0082 20.9891L41.8676 20.8108L36.7152 20.6325L36.2759 20.1421C35.8485 19.6629 35.8129 19.596 35.7417 18.6487C35.7061 18.0914 35.6705 16.598 35.6705 15.3163V12.9981H37.9855H40.3005V14.8371C40.3005 16.5088 40.3243 16.6983 40.5261 16.8878C40.8585 17.1998 41.4996 17.2555 43.8859 17.211C45.916 17.1775 45.9872 17.1664 46.284 16.91C46.5927 16.6426 46.5927 16.6314 46.5927 14.8148V12.9981H48.9077H51.2227V15.9516V20.1532Z" fill="#C80D12"/>
<path d="M51.2227 26.3693V27.4867H43.4822H35.7892V27.052V26.6062L36.4184 26.5505C36.7508 26.5171 39.1252 26.4056 41.6895 26.3053C45.3461 26.1604 46.5214 26.1381 47.1744 26.2384C47.6255 26.3165 50.0118 26.3693 51.2227 26.3693Z" fill="#C80D12"/>
<path d="M6.8809 18.0356C6.27543 18.3365 6.15671 19.0275 6.61972 19.4399C6.89278 19.6851 6.91652 19.6851 12.4489 19.6851C15.8442 19.6851 18.0762 19.6405 18.2186 19.5736C18.7885 19.2838 18.7291 18.3477 18.0999 18.0467C17.7081 17.8573 7.24894 17.8461 6.8809 18.0356Z" fill="#111827"/>
<path d="M0.280078 27.6984C-0.0879532 27.977 -0.0998251 28.6234 0.268206 28.9689L0.541262 29.2141H7.18957H13.8498L14.1347 28.9021C14.479 28.5231 14.5027 28.1665 14.1703 27.7764L13.9329 27.4866H7.23706C0.885549 27.4866 0.541262 27.4978 0.280078 27.6984Z" fill="#111827"/>
<path d="M9.93199 32.3458C9.55209 32.591 9.40963 32.9922 9.56396 33.36C9.78953 33.9284 9.86076 33.9395 13.0662 33.9507C16.3904 33.9507 16.4735 33.9284 16.6278 33.204C16.6872 32.9031 16.6397 32.7916 16.3429 32.5018L15.9867 32.1675H13.0899C10.6324 32.1675 10.1576 32.1898 9.93199 32.3458Z" fill="#111827"/>
</g>
<defs>
<clipPath id="clip0_1_258">
<rect width="53.1356" height="57" fill="white"/>
</clipPath>
</defs>
</svg>
