<svg width="107" height="57" viewBox="0 0 107 57" fill="none" xmlns="http://www.w3.org/2000/svg">
<g clip-path="url(#clip0_1_242)">
<path d="M88.6514 48.6948H8.26574C7.3409 48.6948 6.59113 47.9413 6.59113 47.012V41.9634H88.6514V48.6948Z" fill="#C80D12"/>
<path d="M88.6514 55.4245C92.3507 55.4245 95.3492 52.4112 95.3492 48.694C95.3492 44.9767 92.3507 41.9634 88.6514 41.9634C84.9522 41.9634 81.9536 44.9767 81.9536 48.694C81.9536 52.4112 84.9522 55.4245 88.6514 55.4245Z" fill="white"/>
<path d="M33.3869 55.4245C37.0861 55.4245 40.0848 52.4112 40.0848 48.694C40.0848 44.9767 37.0861 41.9634 33.3869 41.9634C29.6878 41.9634 26.6891 44.9767 26.6891 48.694C26.6891 52.4112 29.6878 55.4245 33.3869 55.4245Z" fill="white"/>
<path d="M19.9891 55.4245C23.6882 55.4245 26.687 52.4112 26.687 48.694C26.687 44.9767 23.6882 41.9634 19.9891 41.9634C16.29 41.9634 13.2913 44.9767 13.2913 48.694C13.2913 52.4112 16.29 55.4245 19.9891 55.4245Z" fill="white"/>
<path d="M19.9888 45.9885H19.9614C18.5412 45.9885 17.4036 47.1485 17.4036 48.5794C17.4036 50.0103 18.5687 51.1703 19.9888 51.1703C21.4089 51.1703 22.5603 50.0103 22.5603 48.5794C22.5603 47.1485 21.4089 45.9885 19.9888 45.9885Z" fill="#111827"/>
<path d="M33.5249 45.9885H33.4975C32.0774 45.9885 30.9398 47.1485 30.9398 48.5794C30.9398 50.0103 32.1048 51.1703 33.5249 51.1703C34.945 51.1703 36.0964 50.0103 36.0964 48.5794C36.0964 47.1485 34.945 45.9885 33.5249 45.9885Z" fill="#111827"/>
<path d="M88.6353 46.6365H88.6115C87.3687 46.6365 86.3735 47.6515 86.3735 48.9035C86.3735 50.1555 87.3932 51.1706 88.6353 51.1706C89.878 51.1706 90.8855 50.1555 90.8855 48.9035C90.8855 47.6515 89.878 46.6365 88.6353 46.6365Z" fill="#111827"/>
<path d="M105.525 28.0837L103.419 25.9667L99.1742 13.1719C99.8078 12.9697 100.267 12.3745 100.267 11.6715C100.267 10.8019 99.5648 10.0969 98.6998 10.0969H83.5193V3.25738C83.5193 1.46116 82.0658 0 80.2777 0H3.24155C1.45406 0.000209937 0 1.46158 0 3.25738V40.2806C0 42.0768 1.45406 43.538 3.24155 43.538H5.02402V47.0112C5.02402 48.8074 6.47808 50.2686 8.26556 50.2686H11.8738C12.6083 54.0979 15.9667 57 19.9885 57C22.7424 57 25.1845 55.6383 26.6872 53.5512C28.1901 55.6383 30.6322 57 33.3861 57C37.4079 57 40.7665 54.0979 41.5009 50.2686H80.5362C81.271 54.0979 84.6293 57 88.6514 57C93.2086 57 96.9169 53.2738 96.9169 48.6941C96.9169 48.6579 96.9143 48.6225 96.9143 48.5865H103.724C105.511 48.5865 106.965 47.1254 106.965 45.3292V31.5766C106.965 30.2572 106.454 29.0166 105.525 28.0837ZM11.8738 47.1198H8.26556C8.206 47.1198 8.15778 47.0712 8.15778 47.0114V43.5382H13.5155C12.7048 44.564 12.1297 45.7849 11.8738 47.1198ZM19.9885 53.8516C17.1587 53.8516 14.8567 51.538 14.8567 48.6946C14.8567 45.862 17.1416 43.556 19.9565 43.5384H20.0209C22.8358 43.5558 25.1208 45.8618 25.1208 48.6946C25.1205 51.5378 22.8183 53.8516 19.9885 53.8516ZM33.3863 53.8516C30.5566 53.8516 28.2543 51.538 28.2543 48.6946C28.2543 45.862 30.5392 43.556 33.3542 43.5384H33.4185C36.2334 43.5558 38.5183 45.8618 38.5183 48.6946C38.5181 51.5378 36.2161 53.8516 33.3863 53.8516ZM80.5368 47.1198H41.501C41.2451 45.7849 40.6699 44.5638 39.8592 43.538H70.2294C71.0951 43.538 71.7964 42.833 71.7964 41.9635C71.7964 41.0939 71.0951 40.389 70.2294 40.389H3.24155C3.18201 40.389 3.13375 40.3405 3.13375 40.2806V3.25738C3.13375 3.19755 3.18201 3.14906 3.24155 3.14906H80.2777C80.337 3.14906 80.3854 3.19755 80.3854 3.25738V40.3892H76.9291C76.0635 40.3892 75.3622 41.0942 75.3622 41.9637C75.3622 42.8332 76.0635 43.5382 76.9291 43.5382H82.1786C81.3677 44.564 80.7927 45.7849 80.5368 47.1198ZM100.433 26.9254H90.3261C90.2668 26.9254 90.2184 26.877 90.2184 26.8171V19.9772H98.1287L100.433 26.9254ZM88.6514 53.8516C85.8217 53.8516 83.5193 51.538 83.5193 48.6946C83.5193 45.862 85.8043 43.556 88.6192 43.5384H88.6514C88.6553 43.5384 88.6585 43.538 88.6624 43.5378C91.4869 43.5437 93.7836 45.8546 93.7836 48.6945C93.7829 51.5378 91.4811 53.8516 88.6514 53.8516ZM103.831 35.3406H102.049C101.183 35.3406 100.482 36.0456 100.482 36.9151C100.482 37.7847 101.183 38.4896 102.049 38.4896H103.831V45.3296C103.831 45.3894 103.783 45.4379 103.724 45.4379H96.2542C94.9915 42.4721 92.0593 40.3885 88.6514 40.3885C88.6405 40.3885 88.6302 40.3894 88.6192 40.3894H83.5193V13.3547C83.5193 13.2949 83.5676 13.2456 83.6276 13.2456H95.8959L97.0838 16.8279H88.6514C87.7858 16.8279 87.0845 17.5329 87.0845 18.4025V26.8169C87.0845 28.6132 88.5386 30.0743 90.3261 30.0743H103.075L103.309 30.3103C103.646 30.6487 103.831 31.0984 103.831 31.5768V35.3406Z" fill="#111827"/>
<path d="M8.56684 38.2763H75.5552C76.4202 38.2763 77.1215 37.5713 77.1215 36.7017C77.1215 35.8321 76.4202 35.1272 75.5552 35.1272H8.56684C7.70156 35.1272 7 35.8321 7 36.7017C7 37.5713 7.70156 38.2763 8.56684 38.2763Z" fill="#111827"/>
<path d="M39.2233 6.32865C38.7639 6.91011 38.8532 7.12499 40.1295 8.566L40.9974 9.53931V10.6769V11.8146H40.4486C39.7466 11.8146 39.3382 12.1559 39.3382 12.7626C39.3382 13.3188 39.8232 13.7106 40.4997 13.7106H40.9974V14.5828V15.455L39.9764 16.0491L38.9553 16.6432L38.2278 16.2261C37.8194 15.9985 37.4748 15.8089 37.4492 15.7837C37.4237 15.771 37.5258 15.5688 37.6662 15.3412C37.9981 14.7977 38.0108 14.3427 37.679 13.9887C37.2833 13.5716 36.6324 13.6095 36.2367 14.0898C36.0581 14.2921 35.8921 14.5323 35.8538 14.6207C35.79 14.823 34.1691 14.0266 33.9011 13.6601C33.8117 13.521 33.5437 12.8637 33.3267 12.2064C32.8928 10.8792 32.7141 10.6137 32.2419 10.5C31.859 10.3989 31.4888 10.5758 31.2208 10.993C31.0294 11.2837 31.0421 11.3722 31.374 12.3455C31.5654 12.9269 31.7441 13.4578 31.7696 13.5337C31.7951 13.6095 31.4505 13.7359 30.889 13.8244C29.6637 14.0266 29.3191 14.1657 29.1404 14.5449C28.9362 14.9873 28.9617 15.1516 29.268 15.5309C29.5871 15.9353 29.8807 15.948 31.6165 15.6193L32.88 15.3665L33.6586 15.8089C34.0798 16.0365 34.5009 16.2893 34.5903 16.3398C34.7179 16.4283 34.6924 16.5674 34.4882 17.0224C34.118 17.8693 34.4244 18.514 35.2157 18.514C35.6496 18.514 35.9177 18.3244 36.2878 17.7556L36.492 17.4396L37.0536 17.7429C37.9598 18.2359 37.9342 18.1853 37.9342 19.5126V20.7261L37.194 21.1305L36.4537 21.535L36.2112 21.1305C35.9049 20.6123 35.6496 20.4227 35.2795 20.41C34.8456 20.41 34.5392 20.6123 34.3733 21.0294C34.2329 21.3454 34.2457 21.4718 34.4754 21.9143C34.6286 22.1923 34.7434 22.4451 34.7434 22.4831C34.7434 22.5083 34.3223 22.7738 33.8245 23.0645L32.8928 23.5954L31.5526 23.33C30.8124 23.1783 30.0849 23.0645 29.919 23.0645C29.5233 23.0645 29 23.6081 29 24.0126C29 24.5814 29.4722 24.8974 30.5954 25.087C31.157 25.1755 31.6547 25.2766 31.7058 25.3019C31.7569 25.3272 31.6165 25.8328 31.4122 26.4395C31.0166 27.6024 31.0294 27.8552 31.4633 28.2471C32.1653 28.9044 32.7651 28.3861 33.4033 26.5786L33.8883 25.2134L34.769 24.7078C35.254 24.4297 35.7007 24.2022 35.7517 24.2022C35.79 24.2022 35.9432 24.3918 36.0708 24.6319C36.3644 25.1628 36.8621 25.403 37.3344 25.226C37.9598 24.9859 38.1002 24.3159 37.679 23.6207L37.411 23.2036L38.1895 22.7612L38.9553 22.3187L39.9764 22.9002L40.9974 23.4943V24.3412V25.1755L40.3593 25.264C39.6573 25.3524 39.3382 25.6684 39.3382 26.2499C39.3382 26.7934 39.7466 27.1095 40.4231 27.1095H40.9974V28.2597V29.3974L40.0912 30.4339C39.5935 31.0027 39.1212 31.5968 39.0446 31.7485C38.7639 32.3679 39.4786 33.1516 40.1678 32.9746C40.3337 32.9367 40.8187 32.5069 41.2399 32.0266L42.0057 31.1544L42.7332 31.9886C43.1416 32.4437 43.6139 32.8735 43.7798 32.9367C44.4052 33.1768 45.2093 32.4058 44.9923 31.8117C44.9285 31.66 44.4435 31.0406 43.8947 30.4086L42.8991 29.271L42.9374 28.2218L42.9757 27.1727L43.6649 27.1095C44.4052 27.0336 44.6988 26.7934 44.6988 26.2499C44.6988 25.6052 44.1499 25.2134 43.2693 25.2134H42.8991L42.9374 24.3665L42.9757 23.5322L44.0223 22.9128L45.0689 22.3061L45.8347 22.7612L46.6005 23.2162L46.3452 23.6081C45.8985 24.3538 46.141 25.1123 46.894 25.2892C47.1876 25.3524 47.328 25.2892 47.6726 24.9479C47.9151 24.7078 48.1321 24.4423 48.1576 24.3412C48.2086 24.2022 48.4511 24.278 49.1914 24.6951L50.1742 25.226L50.6336 26.6038C50.8889 27.3749 51.1825 28.0828 51.2973 28.1839C51.8589 28.7401 52.7651 28.3988 52.8417 27.6024C52.8672 27.3623 52.7396 26.7934 52.5481 26.3005C52.3694 25.8201 52.2673 25.3904 52.3184 25.3398C52.3694 25.2892 52.8162 25.1755 53.2884 25.0996C54.3988 24.91 54.7306 24.7583 54.9093 24.3412C55.088 23.8862 54.8966 23.3679 54.4626 23.1656C54.1946 23.0519 53.8372 23.0772 52.6119 23.3047L51.1059 23.5954L50.1997 23.0645C49.7019 22.7738 49.2935 22.4704 49.2935 22.3819C49.2935 22.3061 49.3828 22.1291 49.485 22.0027C49.97 21.3707 49.5232 20.41 48.7575 20.41C48.4256 20.41 47.7619 20.903 47.7619 21.1558C47.7619 21.1937 47.7109 21.3075 47.6471 21.396C47.5705 21.5224 47.3663 21.4592 46.7664 21.1053L45.9751 20.6502V19.462V18.2865L46.6898 17.882C47.0855 17.6671 47.4556 17.5028 47.5067 17.528C47.5705 17.5533 47.7492 17.7682 47.9151 18.0084C48.4894 18.8553 49.6764 18.5772 49.6764 17.5912C49.6764 17.3763 49.5871 17.073 49.485 16.9466C49.3828 16.8075 49.2935 16.6306 49.2935 16.5547C49.2935 16.4789 49.7147 16.1755 50.2252 15.8974L51.1442 15.3665L52.3567 15.6067C54.3605 15.9985 54.7562 15.9227 54.9731 15.0884C55.1263 14.4943 54.6285 14.1151 53.3777 13.875C52.7779 13.7612 52.2801 13.6601 52.2673 13.6474C52.2418 13.6348 52.3694 13.205 52.5481 12.6994C52.9438 11.5618 52.9565 11.0435 52.6119 10.7401C52.2929 10.4494 51.6675 10.4368 51.3611 10.7275C51.2208 10.8413 50.9017 11.5618 50.6336 12.3202L50.1614 13.7233L49.2935 14.2163C48.8085 14.4943 48.3746 14.7219 48.3107 14.7219C48.2597 14.7092 48.0555 14.4817 47.864 14.2163C47.5577 13.7865 47.4428 13.7106 47.0599 13.7106C46.2431 13.7106 45.8602 14.4691 46.2942 15.2275C46.5749 15.7205 46.5367 15.8089 45.7709 16.2261L45.0689 16.6306L44.3414 16.2261C42.8991 15.4171 42.9119 15.4424 42.9119 14.5196V13.7106H43.4862C43.933 13.7106 44.1499 13.6348 44.3797 13.3946C45.0816 12.712 44.5839 11.8146 43.5118 11.8146H42.9119V10.7401V9.67835L43.8819 8.57864C44.418 7.9719 44.903 7.33988 44.9668 7.17555C45.1838 6.60674 44.737 6 44.0989 6C43.6394 6 43.4352 6.16432 42.4907 7.26404L42.0057 7.83286L41.7377 7.51684C40.7932 6.35393 40.372 6 39.9253 6C39.6062 6 39.4148 6.08848 39.2233 6.32865ZM43.0395 17.6671L43.9968 18.2106L44.0351 19.462L44.0606 20.7261L43.1033 21.2569C42.5801 21.5603 42.0823 21.8005 42.0057 21.8005C41.9164 21.8005 41.3931 21.535 40.8443 21.219L39.8487 20.6376V19.4747V18.3244L40.8443 17.7303C41.3803 17.4143 41.8908 17.1488 41.9547 17.1362C42.0312 17.1362 42.5162 17.3637 43.0395 17.6671Z" fill="#111827"/>
<path d="M80 1H98V7H81.5429" stroke="#111827" stroke-width="3"/>
</g>
<defs>
<clipPath id="clip0_1_242">
<rect width="107" height="57" fill="white"/>
</clipPath>
</defs>
</svg>
