<svg width="30" height="19" viewBox="0 0 30 19" fill="none" xmlns="http://www.w3.org/2000/svg">
<path fill-rule="evenodd" clip-rule="evenodd" d="M1.68005 0C0.752182 0 0 0.752182 0 1.68005C0 2.60791 0.752183 3.36009 1.68005 3.36009H27.57C28.4978 3.36009 29.25 2.60791 29.25 1.68005C29.25 0.752182 28.4978 0 27.57 0H1.68005ZM1.68005 10.7202C0.752183 10.7202 0 9.96799 0 9.04012C0 8.11226 0.752184 7.36008 1.68005 7.36008H27.57C28.4978 7.36008 29.25 8.11226 29.25 9.04012C29.25 9.96799 28.4978 10.7202 27.57 10.7202H1.68005ZM1.68005 18.0803C0.752184 18.0803 0 17.3281 0 16.4002C0 15.4724 0.752184 14.7202 1.68005 14.7202H27.57C28.4978 14.7202 29.25 15.4724 29.25 16.4002C29.25 17.3281 28.4978 18.0803 27.57 18.0803H1.68005Z" fill="#333333"/>
</svg>
