<svg width="25" height="24" viewBox="0 0 25 24" fill="none" xmlns="http://www.w3.org/2000/svg">
<path fill-rule="evenodd" clip-rule="evenodd" d="M1.81203 3.56392C1.15593 2.90782 1.15593 1.84407 1.81203 1.18797C2.46813 0.531873 3.53187 0.531873 4.18797 1.18797L22.4949 19.4949C23.151 20.151 23.151 21.2147 22.4949 21.8708C21.8388 22.5269 20.7751 22.5269 20.119 21.8708L1.81203 3.56392Z" fill="#333333"/>
<path fill-rule="evenodd" clip-rule="evenodd" d="M4.56392 21.8708C3.90782 22.5269 2.84407 22.5269 2.18797 21.8708C1.53187 21.2147 1.53187 20.151 2.18797 19.4949L20.4949 1.18796C21.151 0.531861 22.2147 0.531861 22.8708 1.18796C23.5269 1.84406 23.5269 2.9078 22.8708 3.5639L4.56392 21.8708Z" fill="#333333"/>
</svg>
