<svg width="249" height="45" viewBox="0 0 249 45" fill="none" xmlns="http://www.w3.org/2000/svg">
<path fill-rule="evenodd" clip-rule="evenodd" d="M248.023 0H139.186V41.8605H248.023V0ZM142.953 8.37209H148.971V39.7674H154.727V8.37209H160.744V3.13953H142.953V8.37209ZM172.06 3.13953H163.531V39.7674H169.287V24.0698H171.275C172.601 24.0698 173.525 24.4012 174.048 25.064C174.607 25.7267 174.886 26.8953 174.886 28.5698V35.2674C174.886 36.6279 174.92 37.5698 174.99 38.093C175.06 38.6163 175.2 39.1744 175.409 39.7674H181.269C180.99 39.1395 180.816 38.5116 180.746 37.8837C180.676 37.2209 180.641 36.3663 180.641 35.3198V28.8837C180.641 26.7209 180.345 24.9942 179.752 23.7035C179.194 22.4128 178.217 21.5581 176.822 21.1395V21.0349C179.333 20.0233 180.589 17.6163 180.589 13.814V11.564C180.589 8.70349 179.909 6.59302 178.548 5.23256C177.188 3.83721 175.025 3.13953 172.06 3.13953ZM173.944 17.9477C173.386 18.5407 172.531 18.8372 171.38 18.8372H169.287V8.37209H171.903C172.915 8.37209 173.647 8.6686 174.101 9.26163C174.589 9.85465 174.833 10.814 174.833 12.1395V14.9651C174.833 16.3605 174.537 17.3547 173.944 17.9477ZM196.879 3.13953H189.083L183.117 39.7674H188.455L189.501 32.5988H196.042V32.4942L197.088 39.7674H202.844L196.879 3.13953ZM192.798 9.52326L195.362 27.6279H190.181L192.693 9.52326H192.798ZM207.314 37.936C208.779 39.5058 210.889 40.2907 213.645 40.2907C216.401 40.2907 218.494 39.5058 219.924 37.936C221.389 36.3663 222.122 34.1512 222.122 31.2907V26.1105H216.68V31.7093C216.68 33.9419 215.721 35.0581 213.802 35.0581C211.883 35.0581 210.924 33.9419 210.924 31.7093V11.25C210.924 8.98256 211.883 7.84884 213.802 7.84884C215.721 7.84884 216.68 8.98256 216.68 11.25V15.4884H222.122V11.6163C222.122 8.75581 221.389 6.5407 219.924 4.97093C218.494 3.40116 216.401 2.61628 213.645 2.61628C210.889 2.61628 208.779 3.40116 207.314 4.97093C205.883 6.5407 205.168 8.75581 205.168 11.6163V31.2907C205.168 34.1512 205.883 36.3663 207.314 37.936ZM231.321 3.13953H225.565V39.7674H231.321V28.0988L233.623 23.4419L238.49 39.7674H244.507L237.548 16.5872L244.403 3.13953H238.647L231.321 18.5756V3.13953Z" fill="#111827"/>
<path d="M92.3618 3.13962H98.1176V34.535H107.589V39.7675H92.3618V3.13962Z" fill="#111827"/>
<path d="M75.8079 3.13962H83.6044L89.5695 39.7675H83.8137L82.7672 32.4943V32.5989H76.2265L75.18 39.7675H69.8428L75.8079 3.13962ZM82.087 27.628L79.523 9.52334H79.4184L76.9067 27.628H82.087Z" fill="#111827"/>
<path d="M50.2051 3.13962H58.9958C61.8562 3.13962 64.0016 3.90706 65.4318 5.44194C66.8621 6.97683 67.5772 9.22683 67.5772 12.1919V30.7152C67.5772 33.6803 66.8621 35.9303 65.4318 37.4652C64.0016 39.0001 61.8562 39.7675 58.9958 39.7675H50.2051V3.13962ZM58.8911 34.535C59.833 34.535 60.5481 34.2559 61.0365 33.6978C61.5597 33.1396 61.8214 32.2326 61.8214 30.9768V11.9303C61.8214 10.6745 61.5597 9.76753 61.0365 9.20938C60.5481 8.65125 59.833 8.37218 58.8911 8.37218H55.9609V34.535H58.8911Z" fill="#111827"/>
<path d="M37.5738 40.2907C34.7482 40.2907 32.5855 39.4884 31.0855 37.8837C29.5855 36.2791 28.8354 34.0116 28.8354 31.0814V11.8256C28.8354 8.89534 29.5855 6.6279 31.0855 5.02325C32.5855 3.4186 34.7482 2.61627 37.5738 2.61627C40.3994 2.61627 42.5622 3.4186 44.0622 5.02325C45.5622 6.6279 46.3122 8.89534 46.3122 11.8256V31.0814C46.3122 34.0116 45.5622 36.2791 44.0622 37.8837C42.5622 39.4884 40.3994 40.2907 37.5738 40.2907ZM37.5738 35.0581C39.5622 35.0581 40.5564 33.8546 40.5564 31.4477V11.4593C40.5564 9.05232 39.5622 7.84883 37.5738 7.84883C35.5854 7.84883 34.5913 9.05232 34.5913 11.4593V31.4477C34.5913 33.8546 35.5854 35.0581 37.5738 35.0581Z" fill="#111827"/>
<path d="M1.09863 3.13962H9.31375L12.9765 29.3547H13.0812L16.744 3.13962H24.9591V39.7675H19.5172V12.035H19.4126L15.2265 39.7675H10.4126L6.22654 12.035H6.12189V39.7675H1.09863V3.13962Z" fill="#111827"/>
<path d="M0 41.8604H248.023V44.9999H0V41.8604Z" fill="#C80D12"/>
<g clip-path="url(#clip0_12_368)">
<path d="M132.21 40.4651H128.721V26.5117H130.117C130.535 26.5117 130.814 26.2326 130.814 25.814V11.8605C130.814 11.4419 130.535 11.1628 130.117 11.1628H129.628L127.954 8.02331C127.814 7.81401 127.605 7.67445 127.326 7.67445H126.628V6.27907C126.628 5.86047 126.349 5.58142 125.931 5.58142H125.582L123.14 2.51163V0.697647C123.14 0.279042 122.861 0 122.442 0C122.024 0 121.745 0.279042 121.745 0.697647V2.51163L119.303 5.58142H118.954C118.535 5.58142 118.256 5.86047 118.256 6.27907V7.67445H117.558C117.279 7.67445 117.07 7.81401 116.931 8.02331L115.256 11.1628H114.768C114.349 11.1628 114.07 11.4419 114.07 11.8605V25.814C114.07 26.2326 114.349 26.5117 114.768 26.5117H116.163V40.4652H112.675C112.256 40.4652 111.977 40.7442 111.977 41.1628C111.977 41.5814 112.256 41.8605 112.675 41.8605H114.768H130.117H132.21C132.628 41.8605 132.907 41.5814 132.907 41.1628C132.907 40.7442 132.628 40.4651 132.21 40.4651ZM120.349 38.3721C120.349 38.7907 120.07 39.0697 119.651 39.0697C119.233 39.0697 118.954 38.7907 118.954 38.3721V28.6047C118.954 28.1861 119.233 27.907 119.651 27.907C120.07 27.907 120.349 28.1861 120.349 28.6047V38.3721ZM123.14 38.3721C123.14 38.7907 122.861 39.0697 122.442 39.0697C122.024 39.0697 121.745 38.7907 121.745 38.3721V28.6047C121.745 28.1861 122.024 27.907 122.442 27.907C122.861 27.907 123.14 28.1861 123.14 28.6047V38.3721ZM125.931 38.3721C125.931 38.7907 125.652 39.0697 125.233 39.0697C124.814 39.0697 124.535 38.7907 124.535 38.3721V28.6047C124.535 28.1861 124.814 27.907 125.233 27.907C125.652 27.907 125.931 28.1861 125.931 28.6047V38.3721ZM122.442 23.7209C119.721 23.7209 117.558 21.5581 117.558 18.8372C117.558 16.1163 119.721 13.9535 122.442 13.9535C125.163 13.9535 127.326 16.1163 127.326 18.8372C127.326 21.5581 125.163 23.7209 122.442 23.7209Z" fill="#111827"/>
<path d="M123.838 18.1396H123.14V16.7442C123.14 16.3256 122.861 16.0465 122.442 16.0465C122.024 16.0465 121.745 16.3256 121.745 16.7442V18.8372C121.745 19.2558 122.024 19.5349 122.442 19.5349H123.838C124.256 19.5349 124.535 19.2558 124.535 18.8372C124.535 18.4186 124.256 18.1396 123.838 18.1396Z" fill="#111827"/>
</g>
<defs>
<clipPath id="clip0_12_368">
<rect width="41.8605" height="41.8605" fill="white" transform="translate(101.512)"/>
</clipPath>
</defs>
</svg>
