<svg width="44" height="44" viewBox="0 0 44 44" fill="none" xmlns="http://www.w3.org/2000/svg">
<path d="M32.2667 42.5333H28.6V27.8667H30.0667C30.5067 27.8667 30.8 27.5734 30.8 27.1334V12.4667C30.8 12.0267 30.5067 11.7334 30.0667 11.7334H29.5534L27.7934 8.43339C27.6467 8.21339 27.4267 8.0667 27.1334 8.0667H26.4V6.6C26.4 6.16 26.1067 5.8667 25.6667 5.8667H25.3L22.7333 2.64V0.733305C22.7333 0.293305 22.44 0 22 0C21.56 0 21.2667 0.293305 21.2667 0.733305V2.64L18.7 5.8667H18.3333C17.8933 5.8667 17.6 6.16 17.6 6.6V8.0667H16.8667C16.5734 8.0667 16.3534 8.21339 16.2067 8.43339L14.4467 11.7334H13.9334C13.4934 11.7334 13.2001 12.0267 13.2001 12.4667V27.1334C13.2001 27.5734 13.4934 27.8667 13.9334 27.8667H15.4V42.5334H11.7333C11.2933 42.5334 11 42.8267 11 43.2667C11 43.7067 11.2933 44 11.7333 44H13.9333H30.0666H32.2666C32.7066 44 32.9999 43.7067 32.9999 43.2667C32.9999 42.8267 32.7067 42.5333 32.2667 42.5333ZM19.8 40.3333C19.8 40.7733 19.5067 41.0666 19.0667 41.0666C18.6267 41.0666 18.3334 40.7733 18.3334 40.3333V30.0667C18.3334 29.6267 18.6267 29.3334 19.0667 29.3334C19.5067 29.3334 19.8 29.6267 19.8 30.0667V40.3333ZM22.7333 40.3333C22.7333 40.7733 22.44 41.0666 22 41.0666C21.56 41.0666 21.2667 40.7733 21.2667 40.3333V30.0667C21.2667 29.6267 21.56 29.3334 22 29.3334C22.44 29.3334 22.7333 29.6267 22.7333 30.0667V40.3333ZM25.6667 40.3333C25.6667 40.7733 25.3734 41.0666 24.9334 41.0666C24.4934 41.0666 24.2001 40.7733 24.2001 40.3333V30.0667C24.2001 29.6267 24.4934 29.3334 24.9334 29.3334C25.3734 29.3334 25.6667 29.6267 25.6667 30.0667V40.3333ZM22 24.9333C19.14 24.9333 16.8667 22.66 16.8667 19.8C16.8667 16.94 19.14 14.6667 22 14.6667C24.86 14.6667 27.1333 16.94 27.1333 19.8C27.1333 22.66 24.86 24.9333 22 24.9333Z" fill="#111827"/>
<path d="M23.4665 19.0667H22.7332V17.6C22.7332 17.16 22.4399 16.8667 21.9999 16.8667C21.5599 16.8667 21.2666 17.16 21.2666 17.6V19.8C21.2666 20.24 21.5599 20.5333 21.9999 20.5333H23.4666C23.9066 20.5333 24.1999 20.24 24.1999 19.8C24.1999 19.36 23.9065 19.0667 23.4665 19.0667Z" fill="#111827"/>
</svg>
